<?xml version="1.0" standalone="no"?>
<!DOCTYPE svg PUBLIC "-//W3C//DTD SVG 20010904//EN"
 "http://www.w3.org/TR/2001/REC-SVG-20010904/DTD/svg10.dtd">
<svg version="1.0" xmlns="http://www.w3.org/2000/svg"
 width="500.000000pt" height="500.000000pt" viewBox="0 0 500.000000 500.000000"
 preserveAspectRatio="xMidYMid meet">

<g transform="translate(0.000000,500.000000) scale(0.100000,-0.100000)"
fill="#000000" stroke="none">
<path d="M2533 4230 c-12 -5 -25 -19 -28 -32 -3 -13 -11 -52 -19 -87 -8 -34
-17 -65 -19 -67 -3 -3 -12 27 -22 66 -23 95 -44 120 -101 120 -37 0 -46 -4
-54 -22 -11 -29 -40 -225 -40 -276 0 -43 23 -72 57 -72 46 0 52 9 59 93 l8 82
20 -66 c26 -83 40 -99 82 -99 40 0 47 12 64 98 15 73 30 66 30 -14 0 -36 5
-56 18 -67 22 -20 61 -22 86 -4 17 12 17 19 -3 156 -12 78 -25 150 -31 161 -5
10 -24 23 -41 29 -37 13 -37 13 -66 1z"/>
<path d="M2964 4172 c-21 -14 -154 -258 -154 -283 0 -33 29 -59 66 -59 27 0
33 6 62 73 l33 72 -7 -80 c-6 -89 2 -106 58 -120 24 -6 30 -1 70 59 24 36 46
66 50 66 3 0 -3 -29 -15 -65 -23 -72 -19 -90 23 -112 49 -24 63 -6 97 128 17
68 32 139 32 157 1 45 -36 82 -82 82 -32 0 -38 -6 -86 -77 l-51 -78 6 95 c6
91 5 96 -17 116 -27 24 -69 37 -85 26z"/>
<path d="M1907 4130 l-25 -20 20 -42 c31 -63 58 -148 58 -178 0 -28 -22 -46
-41 -34 -10 6 -58 99 -79 154 -18 49 -39 70 -67 70 -31 0 -83 -27 -83 -43 0
-32 64 -200 90 -236 38 -52 91 -70 158 -53 63 17 121 59 145 106 18 34 19 45
10 90 -16 73 -50 159 -73 184 -26 28 -79 29 -113 2z"/>
<path d="M1431 3893 l-21 -18 20 -65 c11 -36 20 -70 20 -77 0 -8 -28 1 -71 22
-74 35 -90 35 -118 1 -7 -8 -11 -27 -9 -43 3 -24 14 -32 108 -74 58 -26 119
-61 135 -78 35 -37 71 -40 109 -10 33 26 33 42 -3 87 -22 28 -35 62 -50 137
-22 102 -41 135 -81 135 -10 0 -27 -8 -39 -17z"/>
<path d="M3491 3873 c-6 -21 -20 -78 -31 -128 -12 -50 -30 -99 -41 -111 -28
-30 -25 -78 7 -103 37 -29 51 -27 93 18 25 28 62 51 124 77 117 49 142 89 87
139 -18 16 -22 15 -86 -19 -37 -20 -70 -33 -73 -31 -2 3 3 29 12 59 9 29 17
64 17 78 0 33 -29 58 -68 58 -28 0 -32 -4 -41 -37z"/>
<path d="M2395 3440 c-146 -20 -279 -70 -402 -148 -87 -57 -139 -105 -129
-121 13 -20 34 -11 113 45 153 110 295 162 493 179 64 6 225 -7 237 -19 2 -2
-5 -19 -16 -37 -83 -141 -87 -332 -10 -489 68 -137 181 -231 329 -273 53 -16
56 -19 83 -75 54 -113 153 -179 283 -189 l75 -6 -6 -31 c-25 -124 -82 -254
-163 -365 -33 -46 -58 -90 -55 -98 11 -28 41 -11 86 50 121 161 223 446 175
485 -7 5 -47 12 -89 14 -123 8 -212 65 -259 167 -31 65 -45 78 -108 97 -124
36 -215 102 -282 206 -53 82 -73 164 -68 280 3 83 8 102 42 171 47 99 46 127
-9 145 -50 16 -241 24 -320 12z"/>
<path d="M3016 3280 c-77 -25 -103 -50 -116 -117 -23 -108 8 -156 125 -192
113 -35 159 -6 190 121 26 105 23 136 -20 176 -42 38 -87 42 -179 12z m146
-47 c22 -19 23 -59 4 -132 -26 -94 -59 -109 -153 -70 -58 24 -74 49 -66 107 7
49 28 71 91 94 61 21 101 22 124 1z"/>
<path d="M2320 3125 c-11 -13 -9 -20 10 -40 28 -30 60 -33 60 -7 0 17 -38 62
-52 62 -3 0 -11 -7 -18 -15z"/>
<path d="M1732 3048 c-68 -92 -125 -203 -159 -315 -25 -82 -27 -100 -27 -273
0 -173 2 -191 27 -273 108 -349 362 -593 717 -689 126 -33 335 -31 475 6 185
48 437 193 419 241 -10 25 -32 17 -107 -40 -274 -206 -669 -237 -984 -76 -179
91 -347 272 -428 461 -61 143 -69 187 -69 370 0 151 2 173 28 255 31 104 92
222 159 314 50 67 54 84 21 89 -13 2 -34 -18 -72 -70z"/>
<path d="M3394 3100 c-59 -23 -70 -95 -24 -142 27 -26 36 -30 68 -25 46 8 72
38 72 86 -1 43 -16 66 -54 81 -32 12 -34 12 -62 0z m64 -76 c6 -40 -48 -56
-62 -18 -10 26 5 45 33 42 17 -2 27 -10 29 -24z"/>
<path d="M2460 2930 c-24 -24 -26 -48 -4 -57 21 -8 69 40 61 61 -9 22 -33 20
-57 -4z"/>
<path d="M2021 2902 c-71 -36 -100 -123 -66 -196 52 -110 211 -113 266 -4 66
130 -70 267 -200 200z m131 -61 c27 -24 33 -36 33 -71 0 -35 -6 -46 -30 -66
-67 -54 -155 -16 -155 66 0 33 6 48 29 71 39 38 80 39 123 0z"/>
<path d="M3198 2840 c-54 -29 -66 -73 -37 -142 51 -125 127 -130 210 -15 41
56 38 82 -16 134 -37 35 -52 43 -83 43 -20 -1 -53 -10 -74 -20z m108 -46 c44
-30 47 -48 13 -90 -53 -67 -75 -66 -105 4 -20 48 -18 67 9 85 29 21 52 21 83
1z"/>
<path d="M2435 2675 c-54 -53 -16 -145 60 -145 49 0 85 36 85 85 0 76 -92 114
-145 60z m86 -41 c17 -21 0 -49 -32 -49 -24 0 -36 23 -25 51 7 19 40 18 57 -2z"/>
<path d="M1854 2505 c-7 -18 30 -105 45 -105 5 0 14 7 21 15 9 11 7 23 -12 56
-26 47 -45 59 -54 34z"/>
<path d="M2253 2404 c-8 -21 40 -69 61 -61 21 8 20 40 -2 60 -23 21 -51 22
-59 1z"/>
<path d="M2753 2403 c-34 -17 -44 -49 -19 -59 23 -9 96 34 96 56 0 25 -31 26
-77 3z"/>
<path d="M2092 2250 c-45 -28 -68 -82 -53 -130 40 -134 231 -108 231 30 0 43
-27 87 -66 105 -43 20 -73 19 -112 -5z m111 -62 c22 -27 22 -53 -3 -78 -39
-39 -110 -15 -110 37 0 13 11 35 25 49 29 29 58 26 88 -8z"/>
<path d="M3034 2255 c-7 -17 12 -70 33 -90 16 -17 43 -9 43 11 0 8 -9 33 -20
54 -21 41 -46 52 -56 25z"/>
<path d="M2715 2200 c-99 -21 -147 -112 -107 -204 26 -58 70 -86 136 -86 89 0
146 59 146 152 0 90 -85 157 -175 138z m96 -79 c39 -40 40 -92 2 -127 -34 -32
-66 -39 -104 -24 -63 26 -78 95 -33 149 36 43 93 44 135 2z"/>
<path d="M2328 1910 c-46 -25 -54 -38 -35 -57 13 -13 19 -12 56 7 32 16 42 26
39 42 -4 29 -16 31 -60 8z"/>
<path d="M2625 1750 c-9 -29 4 -60 25 -60 10 0 22 9 25 20 9 29 -4 60 -25 60
-10 0 -22 -9 -25 -20z"/>
<path d="M3262 1604 c-73 -61 -90 -79 -83 -93 5 -9 46 -60 90 -113 109 -132
129 -136 226 -45 60 57 70 90 37 120 -24 22 -24 22 -72 -18 -23 -19 -46 -35
-51 -35 -18 0 -8 22 21 47 31 26 39 60 18 81 -19 19 -41 14 -80 -18 -51 -42
-58 -19 -8 26 45 41 53 79 22 107 -10 10 -21 17 -23 17 -3 0 -47 -34 -97 -76z"/>
<path d="M1729 1507 c-75 -50 -108 -174 -62 -235 40 -54 101 -92 148 -92 54 0
77 21 73 64 -3 27 -7 31 -40 37 -74 12 -102 73 -55 117 30 29 59 28 95 -3 17
-14 41 -25 55 -25 28 0 57 23 57 45 0 22 -56 81 -94 99 -51 24 -136 21 -177
-7z"/>
<path d="M3052 1460 c-25 -24 -23 -29 53 -165 54 -95 92 -130 135 -120 54 13
54 30 -3 138 -81 157 -132 197 -185 147z"/>
<path d="M2921 1393 c-5 -10 -17 -45 -27 -78 l-17 -60 -20 48 c-14 33 -27 49
-44 53 -29 8 -71 -9 -80 -32 -7 -18 47 -195 78 -256 16 -31 25 -38 50 -38 52
0 71 16 63 55 -9 52 4 61 40 27 45 -45 79 -50 110 -18 15 14 26 32 26 40 0 8
-25 37 -56 64 l-56 50 11 38 c15 55 14 90 -5 108 -21 21 -61 20 -73 -1z"/>
<path d="M2061 1373 c-70 -35 -113 -157 -81 -233 41 -99 202 -138 277 -68 67
62 83 178 35 245 -46 65 -158 92 -231 56z m117 -115 c21 -21 15 -75 -10 -92
-31 -22 -45 -20 -64 10 -16 23 -16 28 -1 60 18 36 51 46 75 22z"/>
<path d="M2497 1330 c-82 -15 -130 -78 -129 -170 1 -88 38 -144 111 -169 133
-44 259 61 236 198 -17 103 -106 161 -218 141z m82 -142 c23 -40 5 -82 -35
-86 -24 -2 -33 2 -42 23 -16 34 -15 46 4 73 21 30 54 25 73 -10z"/>
</g>
</svg>
